<svg width="73" height="52" viewBox="0 0 73 52" fill="none" xmlns="http://www.w3.org/2000/svg">
<mask id="mask0_2172_19302" style="mask-type:alpha" maskUnits="userSpaceOnUse" x="0" y="0" width="73" height="52">
<path d="M30.1622 0.044544C31.7363 0.0755927 33.314 -0.0906092 34.8843 0.0737663C35.0262 1.79788 35.5533 3.4599 35.8575 5.15845C34.641 4.91554 33.4006 4.98859 32.1712 4.97581C31.9869 4.574 31.8174 4.17402 31.6312 3.77952C31.1428 2.53027 30.5364 1.32667 30.1567 0.0372384L30.1622 0.044544ZM36.8177 0.546803C39.6635 0.351378 43.3331 1.83441 45.9448 2.92112C48.1805 4.03704 50.4641 5.19132 52.9634 5.584C54.7354 5.85868 56.5361 5.90228 58.3195 5.71367C58.4282 5.70454 58.3803 5.68628 58.419 5.83787C59.0567 8.34733 59.6576 10.8879 60.2621 13.4083C60.9084 16.087 61.5499 18.7657 62.1863 21.4444C61.6334 21.7366 61.027 21.8627 60.4649 22.1184C60.1847 22.2535 59.9119 22.3923 59.6263 22.5238C57.4403 23.7018 55.8405 25.6999 54.436 27.687C56.7565 27.687 59.0752 27.6633 61.3956 27.6998C75.8272 28.7591 73.4146 52 63.2388 52L9.15075 51.9781C-0.595638 52.0018 -5.48173 27.8532 14.4829 27.687C12.9089 23.8352 12.6951 19.5011 13.7161 15.4849C13.7604 14.8657 14.2543 15.3516 14.5806 15.4666C15.01 15.7497 15.445 16.0145 15.8965 16.2684C16.4768 16.5663 17.0415 16.893 17.5885 17.2474C16.7978 19.934 17.054 22.8233 17.9313 25.4661C18.2244 26.2186 18.4658 26.9948 18.8529 27.7053C28.7541 27.6943 38.6541 27.6943 48.5528 27.7053C50.2835 25.2652 51.9128 22.7119 54.1117 20.6499C53.4703 20.8691 52.8086 21.0152 52.1598 21.2198C51.9755 20.6426 51.8336 20.0545 51.6345 19.4847C51.1719 20.1842 50.759 20.8983 49.8633 21.0937C49.2827 21.2198 48.6542 20.7887 48.3538 20.9513C48.1842 21.0718 48.0497 21.2472 47.8414 21.3914C47.4028 21.7086 46.8417 21.8089 46.319 21.6636C45.766 21.5211 45.7237 21.5357 45.2795 21.9028C45.1853 21.9817 45.0855 22.0537 44.9809 22.1184C44.5054 22.4303 43.8997 22.4726 43.3847 22.2298C42.6014 21.8645 42.0153 21.2636 41.4384 20.6445C39.6875 21.2106 37.8572 21.5193 36.0694 21.954C35.473 21.8155 34.9042 21.5791 34.3867 21.2545C33.8651 20.4216 33.7747 19.3696 33.9259 18.4108L34.5525 17.8172C36.4638 17.2419 38.2738 16.8419 40.2256 16.4456C40.5703 16.3762 40.5058 16.4163 40.6182 16.7835C40.7122 17.0647 40.8025 17.3442 40.8744 17.6309C41.0237 17.8902 41.1767 18.1514 41.3297 18.4089C41.3979 17.2912 41.1454 16.8583 40.8781 15.8392C40.6938 15.1214 40.9629 14.926 41.3813 14.3781C41.643 14.0439 41.9102 13.7315 42.3231 13.5854C43.429 13.4211 44.1791 15.0192 44.4961 15.8447C44.6804 16.3269 44.8408 16.8163 45.0491 17.2948C45.1891 15.9397 44.8555 15.0739 44.3321 13.8594C44.1257 13.3809 44.2105 13.3243 44.7007 13.1288C45.696 12.7526 46.3595 12.8001 46.988 13.7096C47.1275 13.8934 47.2544 14.0862 47.3677 14.2868C47.4894 14.652 47.5852 15.0082 47.7197 15.3826C47.8543 15.757 48.0091 16.1369 48.1768 16.5095C48.2819 15.3333 48.1437 14.6466 47.6497 13.5873C47.4997 13.3079 47.3899 13.0092 47.3235 12.6996C47.3124 12.6101 47.3235 12.6284 47.4064 12.5444C48.269 11.8504 49.5831 12.4859 50.0697 13.3352C50.3185 13.7699 50.4973 14.4858 50.6669 14.979L50.9102 15.6858H51.1055C51.1645 14.042 50.4568 12.7234 49.7656 11.2878C50.431 11.1198 51.1 10.9646 51.7801 10.8623L51.358 10.5007C50.6822 10.4539 50.0152 10.322 49.373 10.108C48.6708 9.80297 47.9335 9.57832 47.2553 9.22035C44.2363 7.75924 41.3334 5.79951 37.9107 5.42328C37.5292 3.80144 37.2048 2.16681 36.8196 0.544976L36.8177 0.546803ZM14.6801 48.5518L60.7118 48.581C69.2565 48.5262 67.6014 31.5955 60.0391 31.6083C44.6577 31.601 29.2782 31.601 13.9005 31.6083C3.79835 31.8457 3.63062 48.5572 14.6782 48.5554L14.6801 48.5518ZM23.8662 2.39877C25.1811 1.66677 26.5896 1.11387 28.0537 0.755012C28.3124 1.2287 28.5437 1.71652 28.7467 2.21613C28.9661 2.72752 29.1614 3.24804 29.3881 3.76126C29.5909 4.22151 29.7807 4.68907 29.9706 5.15662C28.7789 5.4381 27.6197 5.84019 26.511 6.35656C25.5895 5.06348 24.7398 3.72473 23.8662 2.40059V2.39877ZM18.1525 6.94101C19.3139 5.67708 20.6118 4.5434 22.0231 3.56035C22.8746 4.83883 23.8182 6.06434 24.5205 7.42683C23.5289 8.18661 22.5059 8.9263 21.6563 9.84863C20.438 8.93543 19.2971 7.93822 18.1544 6.94101H18.1525ZM65.351 9.13268C66.1527 12.3691 67.089 15.5707 67.8226 18.8254C68.0069 19.6399 67.9958 20.4472 67.0116 20.6518C65.8283 20.8581 65.5039 18.7249 65.3196 17.9341L65.3049 17.8756C64.4865 14.5717 63.6461 11.275 62.8388 7.96744C62.6342 7.29898 62.0002 5.26073 62.5218 4.71464C62.8904 4.33657 63.6277 4.34936 64.0092 4.71464C64.3594 5.04339 64.5031 5.75568 64.6303 6.21776C64.8957 7.18209 65.1132 8.15922 65.3528 9.12903L65.351 9.13268ZM64.9971 18.9423C65.1335 19.6144 65.5003 20.8545 64.6745 21.2271C64.2377 21.4243 63.7014 21.3768 63.3991 20.975C63.0968 20.5732 62.9733 19.965 62.8462 19.5011L62.6619 18.8509C61.7698 15.5981 61.0713 12.296 60.2031 9.03589C60.0317 8.47153 59.3221 6.14836 59.5599 5.7155C59.8345 5.21872 60.9883 4.87718 61.3698 5.49085C61.7514 6.10452 61.9762 7.2241 62.1568 7.94735C63.0784 11.6166 64.0424 15.2749 64.9823 18.9404L64.9971 18.9423ZM67.9921 8.05328C68.7294 10.7527 69.3266 13.4685 70.1117 16.1588C70.3476 16.9661 70.7273 18.1496 69.6528 18.5331C68.9542 18.7834 68.4677 18.3797 68.2096 17.7587C67.9516 17.1378 67.8041 16.2611 67.6475 15.5999C67.2666 14.0061 66.8666 12.4178 66.4476 10.8349C66.1288 9.37377 65.6145 7.91265 65.3694 6.45154C65.2183 5.53834 65.6532 4.97033 66.608 5.17306C67.266 5.31187 67.4484 5.847 67.6161 6.41866C67.771 6.95562 67.841 7.5145 67.9848 8.06242L67.9921 8.05328ZM68.4068 6.18306C72.235 5.92371 75.1139 14.4219 70.9669 16.6227C70.1523 13.1343 69.2473 9.66782 68.4068 6.18306ZM14.7722 12.3837C15.4229 11.0321 16.0753 9.67695 17.0153 8.49527C18.1304 9.445 19.2879 10.3582 20.3403 11.3974C19.685 12.1728 19.1394 13.033 18.7183 13.9544C18.523 14.3781 18.3245 14.8043 18.123 15.2328C17.266 14.7598 16.4642 14.1936 15.5703 13.7845C15.1833 13.5489 14.8036 13.2987 14.4386 13.0302C14.5492 12.8183 14.6543 12.6047 14.7612 12.3891L14.7722 12.3837Z" fill="black"/>
<path d="M16.0256 36.6583C17.6268 36.6589 19.0045 37.7802 19.3163 39.3365C19.6281 40.8928 18.7871 42.4506 17.3076 43.0573C15.8281 43.664 14.1222 43.1506 13.233 41.831C12.3439 40.5115 12.5191 38.7534 13.6517 37.6317C14.2808 37.0072 15.1351 36.6569 16.0256 36.6583ZM19.7745 35.1497L20.9043 36.2693C21.0939 36.4575 21.0939 36.7623 20.9043 36.9505L20.2039 37.6445L20.1634 37.6792C20.3512 38.0048 20.4996 38.3512 20.6057 38.7111H21.6397C21.7683 38.7111 21.8916 38.7617 21.9825 38.8518C22.0734 38.9419 22.1245 39.0641 22.1245 39.1915V40.775C22.1245 41.0413 21.9066 41.2571 21.6379 41.2571H20.6444C20.5468 41.6335 20.4033 41.9965 20.2168 42.3384L20.9025 43.0178C21.0921 43.206 21.0921 43.5108 20.9025 43.699L19.7726 44.8186C19.5827 45.0065 19.2751 45.0065 19.0852 44.8186L18.4419 44.1812C18.0875 44.3924 17.7072 44.5575 17.3102 44.6725V45.6222C17.3102 45.8885 17.0924 46.1044 16.8237 46.1044H15.2331C15.1045 46.1044 14.9812 46.0538 14.8902 45.9638C14.7993 45.8737 14.7483 45.7515 14.7483 45.624V44.7108C14.333 44.605 13.9338 44.4447 13.5613 44.2342L12.8978 44.8917C12.7079 45.0795 12.4003 45.0795 12.2103 44.8917L11.0805 43.7721C10.8909 43.5839 10.8909 43.2791 11.0805 43.0908L11.744 42.4333C11.5316 42.0642 11.3698 41.6687 11.263 41.2571H10.3414C10.2129 41.2572 10.0895 41.2066 9.99861 41.1165C9.90771 41.0264 9.85666 40.9042 9.85669 40.7768V39.1933C9.85669 38.927 10.0745 38.7111 10.3433 38.7111H11.3017C11.4178 38.3178 11.5844 37.9409 11.7975 37.5897L11.1542 36.9523C10.9647 36.7641 10.9647 36.4593 11.1542 36.2711L12.2841 35.1515C12.474 34.9636 12.7816 34.9636 12.9716 35.1515L13.6572 35.8309C14.0021 35.6462 14.3686 35.5039 14.7483 35.4072V34.4228C14.7483 34.1565 14.9662 33.9406 15.2349 33.9406H16.8329C16.9614 33.9406 17.0848 33.9912 17.1757 34.0812C17.2666 34.1713 17.3176 34.2935 17.3176 34.4209V35.4017C17.3176 35.4163 17.3176 35.4309 17.3176 35.4455C17.6809 35.5507 18.0304 35.6978 18.359 35.8839L18.394 35.8437L19.0944 35.1497C19.2843 34.9618 19.5919 34.9618 19.7819 35.1497H19.7745ZM20.4564 36.6108L19.4317 35.5953L18.8363 36.1852L18.8861 36.2345C19.2332 36.4966 19.5432 36.8038 19.8077 37.1477L19.8574 37.1971L20.4528 36.6071L20.4564 36.6108ZM21.5623 40.7037V39.2664H20.7311C20.8103 39.7418 20.8177 40.2262 20.7532 40.7037H21.5623ZM19.4261 44.3748L20.4509 43.3593L19.9109 42.8242C19.6308 43.2176 19.2928 43.5673 18.9082 43.8616L19.4243 44.373L19.4261 44.3748ZM15.2957 45.5492H16.7462V44.7985C16.2665 44.877 15.7777 44.8843 15.2957 44.8204V45.551V45.5492ZM11.5155 43.4324L12.5403 44.4478L13.0674 43.9255C12.6766 43.6395 12.3312 43.2973 12.0426 42.91L11.5155 43.4324ZM10.4096 39.2664V40.7037H11.1469C11.0822 40.2262 11.0897 39.7418 11.169 39.2664H10.4096ZM12.6214 35.5953L11.5966 36.6108L12.1127 37.1222C12.4096 36.7411 12.7625 36.4062 13.1595 36.1286L12.6195 35.5935L12.6214 35.5953ZM16.7518 34.4995H15.3012V35.3013C15.7832 35.2372 16.272 35.2446 16.7518 35.3232V34.4995ZM18.8529 37.1898C17.4693 35.8193 15.3015 35.608 13.675 36.6852C12.0485 37.7624 11.4163 39.828 12.165 41.619C12.9136 43.41 14.8347 44.4276 16.7535 44.0495C18.6722 43.6715 20.0543 42.0031 20.0546 40.0645C20.056 38.986 19.6236 37.9514 18.8529 37.1898ZM17.8724 38.1614C16.9916 37.2891 15.6116 37.1549 14.5765 37.8409C13.5414 38.527 13.1396 39.8421 13.6169 40.9819C14.0942 42.1216 15.3177 42.7684 16.5388 42.5266C17.76 42.2848 18.6386 41.2218 18.6373 39.9878C18.6376 39.3024 18.3623 38.6452 17.8724 38.1614Z" fill="black"/>
<path d="M29.4729 36.6583C31.0741 36.6589 32.4518 37.7802 32.7636 39.3365C33.0754 40.8928 32.2344 42.4506 30.7549 43.0573C29.2754 43.664 27.5695 43.1506 26.6803 41.831C25.7912 40.5115 25.9665 38.7534 27.099 37.6317C27.7281 37.0072 28.5824 36.6569 29.4729 36.6583ZM33.2218 35.1497L34.3516 36.2693C34.5412 36.4575 34.5412 36.7623 34.3516 36.9505L33.6512 37.6445L33.6107 37.6792C33.7985 38.0048 33.947 38.3512 34.053 38.7111H35.087C35.2156 38.7111 35.3389 38.7617 35.4298 38.8518C35.5207 38.9419 35.5718 39.0641 35.5718 39.1915V40.775C35.5718 41.0413 35.3539 41.2571 35.0852 41.2571H34.0917C33.9941 41.6334 33.8505 41.9965 33.6641 42.3384L34.3498 43.0178C34.5394 43.206 34.5394 43.5108 34.3498 43.699L33.22 44.8186C33.03 45.0065 32.7224 45.0065 32.5325 44.8186L31.8892 44.1812C31.5348 44.3923 31.1545 44.5575 30.7576 44.6725V45.6222C30.7576 45.8885 30.5397 46.1044 30.271 46.1044H28.673C28.5444 46.1044 28.4211 46.0538 28.3302 45.9638C28.2393 45.8737 28.1882 45.7515 28.1883 45.624V44.7108C27.773 44.605 27.3738 44.4447 27.0013 44.2342L26.3378 44.8917C26.1478 45.0795 25.8402 45.0795 25.6503 44.8917L24.5205 43.7721C24.3309 43.5839 24.3309 43.2791 24.5205 43.0908L25.184 42.4333C24.9716 42.0642 24.8098 41.6687 24.7029 41.2571H23.7814C23.6528 41.2572 23.5295 41.2066 23.4386 41.1165C23.3477 41.0264 23.2966 40.9042 23.2966 40.7768V39.1933C23.2966 38.927 23.5145 38.7111 23.7832 38.7111H24.7416C24.8577 38.3178 25.0243 37.9409 25.2374 37.5897L24.5942 36.9523C24.4046 36.7641 24.4046 36.4593 24.5942 36.2711L25.724 35.1515C25.914 34.9636 26.2215 34.9636 26.4115 35.1515L27.0971 35.8309C27.4421 35.6462 27.8085 35.5039 28.1883 35.4072V34.4228C28.1883 34.1565 28.4061 33.9406 28.6748 33.9406H30.2728C30.4014 33.9406 30.5247 33.9912 30.6156 34.0812C30.7065 34.1713 30.7576 34.2935 30.7576 34.4209V35.4017C30.7576 35.4163 30.7576 35.4309 30.7576 35.4455C31.1208 35.5507 31.4704 35.6978 31.7989 35.8839L31.8339 35.8437L32.5343 35.1497C32.7243 34.9618 33.0318 34.9618 33.2218 35.1497ZM33.9038 36.6108L32.879 35.5953L32.2837 36.1852L32.3334 36.2345C32.6805 36.4966 32.9905 36.8038 33.255 37.1477L33.3047 37.1971L33.9001 36.6071L33.9038 36.6108ZM35.0096 40.7037V39.2664H34.1784C34.2577 39.7418 34.2651 40.2262 34.2005 40.7037H35.0096ZM32.8734 44.3748L33.8982 43.3593L33.3582 42.8242C33.0781 43.2176 32.7401 43.5673 32.3555 43.8616L32.8716 44.373L32.8734 44.3748ZM28.743 45.5492H30.1917V44.7985C29.7126 44.8768 29.2244 44.8842 28.743 44.8204V45.551V45.5492ZM24.9628 43.4324L25.9876 44.4478L26.5147 43.9255C26.1239 43.6395 25.7785 43.2972 25.4899 42.91L24.9628 43.4324ZM23.8569 39.2664V40.7037H24.5942C24.5295 40.2262 24.537 39.7417 24.6163 39.2664H23.8569ZM26.0687 35.5953L25.0439 36.6108L25.56 37.1222C25.8569 36.7411 26.2098 36.4062 26.6069 36.1286L26.0668 35.5935L26.0687 35.5953ZM30.1991 34.4995H28.7486V35.3013C29.2305 35.2372 29.7194 35.2446 30.1991 35.3232V34.4995ZM32.3002 37.1898C30.9166 35.8193 28.7488 35.608 27.1223 36.6852C25.4958 37.7624 24.8636 39.828 25.6123 41.619C26.361 43.41 28.282 44.4276 30.2008 44.0495C32.1195 43.6715 33.5016 42.0031 33.502 40.0645C33.5034 38.986 33.0709 37.9514 32.3002 37.1898ZM31.3197 38.1614C30.4389 37.2891 29.0589 37.1549 28.0238 37.8409C26.9887 38.527 26.5869 39.8421 27.0642 40.9819C27.5416 42.1216 28.765 42.7684 29.9861 42.5266C31.2073 42.2848 32.0859 41.2218 32.0846 39.9878C32.0849 39.3024 31.8096 38.6452 31.3197 38.1614Z" fill="black"/>
<path d="M43.2576 36.4573C44.8588 36.4579 46.2366 37.5793 46.5484 39.1355C46.8602 40.6918 46.0192 42.2496 44.5397 42.8563C43.0602 43.463 41.3542 42.9496 40.4651 41.6301C39.5759 40.3106 39.7512 38.5524 40.8837 37.4308C41.5128 36.8063 42.3671 36.456 43.2576 36.4573ZM47.0065 34.9487L48.1363 36.0683C48.3259 36.2565 48.3259 36.5613 48.1363 36.7495L47.436 37.4436L47.3954 37.4783C47.5832 37.8038 47.7317 38.1502 47.8378 38.5102H48.8717C49.0003 38.5102 49.1236 38.5607 49.2146 38.6508C49.3055 38.7409 49.3565 38.8631 49.3565 38.9905V40.574C49.3565 40.8403 49.1386 41.0562 48.8699 41.0562H47.8765C47.7789 41.4325 47.6353 41.7956 47.4489 42.1374L48.1345 42.8168C48.3241 43.0051 48.3241 43.3099 48.1345 43.4981L47.0047 44.6177C46.8147 44.8055 46.5071 44.8055 46.3172 44.6177L45.6739 43.9802C45.3195 44.1914 44.9392 44.3565 44.5423 44.4715V45.4249C44.5423 45.6912 44.3244 45.9071 44.0557 45.9071H42.4577C42.3291 45.9071 42.2058 45.8565 42.1149 45.7665C42.024 45.6764 41.9729 45.5542 41.973 45.4267V44.5136C41.5577 44.4077 41.1585 44.2474 40.786 44.0369L40.1151 44.6944C39.9252 44.8822 39.6176 44.8822 39.4276 44.6944L38.2978 43.5748C38.1082 43.3866 38.1082 43.0818 38.2978 42.8935L38.9613 42.236C38.7489 41.8669 38.5871 41.4714 38.4803 41.0598H37.5587C37.4301 41.0599 37.3068 41.0093 37.2159 40.9192C37.125 40.8291 37.0739 40.7069 37.074 40.5795V38.996C37.074 38.7297 37.2918 38.5138 37.5606 38.5138H38.519C38.635 38.1205 38.8017 37.7436 39.0148 37.3924L38.3715 36.755C38.1819 36.5668 38.1819 36.262 38.3715 36.0738L39.5014 34.9542C39.6913 34.7663 39.9989 34.7663 40.1888 34.9542L40.8745 35.6336C41.2194 35.4489 41.5858 35.3066 41.9656 35.2099V34.2255C41.9656 33.9592 42.1835 33.7433 42.4522 33.7433H44.0502C44.1787 33.7433 44.3021 33.7939 44.393 33.8839C44.4839 33.974 44.5349 34.0962 44.5349 34.2236V35.1971C44.5349 35.2117 44.5349 35.2263 44.5349 35.2409C44.8982 35.3461 45.2477 35.4932 45.5763 35.6793L45.6113 35.6391L46.3117 34.9451C46.5016 34.7572 46.8092 34.7572 46.9991 34.9451L47.0065 34.9487ZM47.6885 36.4098L46.6637 35.3944L46.0684 35.9843L46.1181 36.0336C46.4652 36.2957 46.7752 36.6029 47.0397 36.9468L47.0895 36.9961L47.6848 36.4062L47.6885 36.4098ZM48.7943 40.5028V39.0654H47.9668C48.046 39.5408 48.0535 40.0252 47.9889 40.5028H48.7943ZM46.6582 44.1738L47.6829 43.1584L47.1429 42.6232C46.8628 43.0167 46.5249 43.3664 46.1403 43.6606L46.6563 44.172L46.6582 44.1738ZM42.5278 45.3482H43.9857V44.5976C43.5065 44.6758 43.0183 44.6832 42.537 44.6195V45.35L42.5278 45.3482ZM38.7531 43.2332L39.7778 44.2487L40.305 43.7264C39.9142 43.4404 39.5688 43.0981 39.2802 42.7109L38.7531 43.2332ZM37.6472 39.0672V40.4937H38.3844C38.3199 40.0161 38.3273 39.5317 38.4065 39.0563L37.6472 39.0672ZM39.8589 35.3962L38.8249 36.4098L39.341 36.9212C39.638 36.5401 39.9909 36.2052 40.3879 35.9277L39.8479 35.3925L39.8589 35.3962ZM43.9893 34.3004H42.5407V35.1021C43.022 35.0382 43.5102 35.0456 43.9893 35.1241V34.3004ZM46.0905 36.9906C44.7069 35.6201 42.539 35.4089 40.9126 36.4861C39.2861 37.5632 38.6539 39.6289 39.4025 41.4199C40.1512 43.2109 42.0723 44.2284 43.991 43.8504C45.9098 43.4724 47.2919 41.8039 47.2922 39.8654C47.2936 38.7869 46.8611 37.7523 46.0905 36.9906ZM45.11 37.9623C44.2292 37.0899 42.8491 36.9558 41.814 37.6418C40.7789 38.3279 40.3772 39.643 40.8545 40.7827C41.3318 41.9225 42.5552 42.5693 43.7764 42.3275C44.9975 42.0857 45.8762 41.0227 45.8748 39.7887C45.8751 39.1033 45.5999 38.4461 45.11 37.9623Z" fill="black"/>
<path d="M56.8873 36.4574C58.4885 36.4581 59.8663 37.5794 60.1781 39.1356C60.4899 40.6919 59.6489 42.2497 58.1694 42.8564C56.6899 43.4631 54.9839 42.9497 54.0948 41.6302C53.2056 40.3107 53.3809 38.5525 54.5134 37.4309C55.1425 36.8064 55.9968 36.4561 56.8873 36.4574ZM60.6362 34.9488L61.766 36.0684C61.9556 36.2566 61.9556 36.5614 61.766 36.7497L61.0657 37.4437L61.0251 37.4784C61.2129 37.804 61.3614 38.1503 61.4675 38.5103H62.5014C62.63 38.5103 62.7533 38.5609 62.8443 38.6509C62.9352 38.741 62.9862 38.8632 62.9862 38.9906V40.5741C62.9862 40.8404 62.7683 41.0563 62.4996 41.0563H61.5062C61.4086 41.4326 61.265 41.7957 61.0786 42.1375L61.7642 42.8169C61.9538 43.0052 61.9538 43.31 61.7642 43.4982L60.6344 44.6178C60.4444 44.8056 60.1368 44.8056 59.9469 44.6178L59.3036 43.9804C58.9492 44.1915 58.5689 44.3566 58.172 44.4717V45.425C58.172 45.6913 57.9541 45.9072 57.6854 45.9072H56.0874C55.9588 45.9072 55.8355 45.8566 55.7446 45.7666C55.6512 45.6769 55.5981 45.5539 55.5971 45.425V44.5118C55.1818 44.406 54.7827 44.2457 54.4102 44.0351L53.754 44.6945C53.5641 44.8823 53.2565 44.8823 53.0665 44.6945L51.9367 43.5749C51.7471 43.3867 51.7471 43.0819 51.9367 42.8936L52.6002 42.2361C52.3878 41.867 52.226 41.4715 52.1192 41.06H51.1976C51.0691 41.06 50.9457 41.0094 50.8548 40.9193C50.7639 40.8292 50.7129 40.707 50.7129 40.5796V38.9961C50.7129 38.7298 50.9307 38.514 51.1995 38.514H52.1579C52.2719 38.1197 52.4367 37.7415 52.6482 37.3889L52.0049 36.7515C51.8153 36.5633 51.8153 36.2585 52.0049 36.0702L53.1347 34.9507C53.3247 34.7628 53.6323 34.7628 53.8222 34.9507L54.5079 35.6301C54.8518 35.4423 55.2176 35.297 55.5971 35.1972V34.2128C55.5971 33.9465 55.815 33.7306 56.0837 33.7306H57.6817C57.8103 33.7306 57.9336 33.7812 58.0245 33.8713C58.1154 33.9614 58.1665 34.0836 58.1664 34.211V35.1972C58.1664 35.2118 58.1664 35.2264 58.1664 35.2411C58.5297 35.3462 58.8792 35.4933 59.2078 35.6794L59.2428 35.6392L59.9432 34.9452C60.1332 34.7573 60.4407 34.7573 60.6307 34.9452L60.6362 34.9488ZM61.3182 36.41L60.2934 35.3945L59.6981 35.9844L59.7478 36.0337C60.0949 36.2958 60.4049 36.603 60.6694 36.9469L60.7192 36.9962L61.3145 36.4063L61.3182 36.41ZM62.424 40.5029V39.0655H61.5928C61.672 39.5409 61.6795 40.0253 61.6149 40.5029H62.424ZM60.2879 44.174L61.3126 43.1585L60.7726 42.6233C60.4925 43.0168 60.1545 43.3664 59.7699 43.6607L60.286 44.1721L60.2879 44.174ZM56.1574 45.3483H57.608V44.5977C57.1282 44.6761 56.6394 44.6835 56.1574 44.6196V45.3502V45.3483ZM52.3828 43.2334L53.4075 44.2488L53.9347 43.7265C53.5439 43.4405 53.1985 43.0982 52.9099 42.711L52.3828 43.2334ZM51.2769 39.0674V40.4938H52.0141C51.9495 40.0162 51.9569 39.5318 52.0362 39.0564L51.2769 39.0674ZM53.4886 35.3963L52.4639 36.41L52.9799 36.9213C53.2769 36.5403 53.6298 36.2054 54.0268 35.9278L53.4868 35.3926L53.4886 35.3963ZM57.619 34.3005H56.1685V35.1023C56.6504 35.0382 57.1393 35.0456 57.619 35.1242V34.3005ZM59.7202 36.9907C58.3366 35.6202 56.1687 35.409 54.5423 36.4862C52.9158 37.5634 52.2836 39.629 53.0322 41.42C53.7809 43.211 55.702 44.2286 57.6207 43.8505C59.5395 43.4725 60.9216 41.804 60.9219 39.8655C60.9233 38.787 60.4908 37.7524 59.7202 36.9907ZM58.7304 37.9551C57.8496 37.0827 56.4696 36.9486 55.4345 37.6346C54.3994 38.3207 53.9976 39.6358 54.475 40.7756C54.9523 41.9153 56.1757 42.5621 57.3969 42.3203C58.618 42.0785 59.4967 41.0155 59.4953 39.7815C59.4956 39.0961 59.2203 38.4389 58.7304 37.9551Z" fill="black"/>
</mask>
<g mask="url(#mask0_2172_19302)">
<rect x="-5.80933" y="-3.55282" width="86.9554" height="57.8222" fill="white"/>
</g>
</svg>