<svg width="24" height="24" viewBox="0 0 24 24" fill="none" xmlns="http://www.w3.org/2000/svg">
<path d="M21.1597 10.3905C21.511 12.3897 21.1985 14.4489 20.2701 16.2539C19.3416 18.059 17.8481 19.5107 16.0174 20.3875C14.1867 21.2644 12.1194 21.5182 10.131 21.1103C8.1426 20.7023 6.34225 19.6551 5.00469 18.1283C3.66712 16.6015 2.86581 14.679 2.72304 12.6542C2.58026 10.6294 3.10385 8.61345 4.21392 6.91405C5.32399 5.21465 6.95956 3.92509 8.87106 3.24216C10.7826 2.55924 12.865 2.52044 14.8006 3.13171" stroke="#333E7B" stroke-width="1.4" stroke-linecap="round"/>
<path d="M7.75 10.8665L10.3399 14.4138C11.1517 15.5256 12.8179 15.504 13.6006 14.3715L20.25 4.75" stroke="#333E7B" stroke-width="1.5" stroke-linecap="round" stroke-linejoin="round"/>
</svg>