<svg width="24" height="24" viewBox="0 0 24 24" fill="none" xmlns="http://www.w3.org/2000/svg">
<path d="M11.621 21.0001V15.0391H9.278V12.3141H11.621V10.3091C11.621 7.9851 13.042 6.7181 15.116 6.7181C15.815 6.7161 16.513 6.7521 17.208 6.8231V9.2531H15.78C14.65 9.2531 14.43 9.7871 14.43 10.5751V12.3101H17.13L16.779 15.0351H14.414V21.0001H11.621Z" fill="white"/>
<path d="M19 3H5C3.897 3 3 3.897 3 5V19C3 20.103 3.897 21 5 21H19C20.103 21 21 20.103 21 19V5C21 3.897 20.103 3 19 3ZM5 19V5H19L19.001 19H5Z" fill="white"/>
</svg>