<svg width="33" height="34" viewBox="0 0 33 34" fill="none" xmlns="http://www.w3.org/2000/svg">
<path d="M32.5 16.6458C32.5 25.5691 25.3613 32.7917 16.569 32.7917C7.7767 32.7917 0.638062 25.5691 0.638062 16.6458C0.638062 7.72259 7.7767 0.5 16.569 0.5C25.3613 0.5 32.5 7.72259 32.5 16.6458Z" stroke="white"/>
<path d="M13.3908 9.88765C11.0848 9.88765 9.20911 11.7897 9.20911 14.1264V20.18C9.20911 22.5162 11.0866 24.4164 13.3931 24.4164H19.3686C21.6746 24.4164 23.5503 22.5144 23.5503 20.1777V14.124C23.5503 11.7879 21.6729 9.88765 19.3663 9.88765H13.3908ZM20.5626 12.3091C20.8924 12.3091 21.1601 12.5803 21.1601 12.9145C21.1601 13.2486 20.8924 13.5198 20.5626 13.5198C20.2327 13.5198 19.965 13.2486 19.965 12.9145C19.965 12.5803 20.2327 12.3091 20.5626 12.3091ZM16.3797 13.5198C18.357 13.5198 19.965 15.1489 19.965 17.152C19.965 19.1552 18.357 20.7842 16.3797 20.7842C14.4024 20.7842 12.7944 19.1552 12.7944 17.152C12.7944 15.1489 14.4024 13.5198 16.3797 13.5198ZM16.3797 14.7306C15.7458 14.7306 15.1378 14.9857 14.6896 15.4398C14.2413 15.8939 13.9895 16.5098 13.9895 17.152C13.9895 17.7942 14.2413 18.4102 14.6896 18.8643C15.1378 19.3184 15.7458 19.5735 16.3797 19.5735C17.0136 19.5735 17.6216 19.3184 18.0699 18.8643C18.5181 18.4102 18.7699 17.7942 18.7699 17.152C18.7699 16.5098 18.5181 15.8939 18.0699 15.4398C17.6216 14.9857 17.0136 14.7306 16.3797 14.7306Z" fill="white"/>
</svg>