<svg width="34" height="34" viewBox="0 0 34 34" fill="none" xmlns="http://www.w3.org/2000/svg">
<path d="M18.2981 25.5086V17.431H20.978L21.3792 14.283H18.2981V12.2731C18.2981 11.3617 18.5483 10.7405 19.8402 10.7405L21.4878 10.7398V7.92425C21.2027 7.88602 20.2247 7.80034 19.0869 7.80034C16.7114 7.80034 15.0851 9.26731 15.0851 11.9615V14.2831H12.3983V17.431H15.085V25.5087L18.2981 25.5086Z" fill="white"/>
<path d="M32.874 16.6458C32.874 25.5691 25.7354 32.7917 16.943 32.7917C8.15072 32.7917 1.01208 25.5691 1.01208 16.6458C1.01208 7.72259 8.15072 0.5 16.943 0.5C25.7354 0.5 32.874 7.72259 32.874 16.6458Z" stroke="white"/>
</svg>