<svg width="34" height="34" viewBox="0 0 34 34" fill="none" xmlns="http://www.w3.org/2000/svg">
<path fill-rule="evenodd" clip-rule="evenodd" d="M25.7765 13.4716C25.9044 13.0522 25.7765 12.7586 25.1797 12.7586H23.1906C22.6791 12.7586 22.4518 13.0242 22.3239 13.3178C22.3239 13.3178 21.3151 15.7504 19.88 17.3162C19.4112 17.7775 19.2123 17.9173 18.9565 17.9173C18.8286 17.9173 18.6439 17.7775 18.6439 17.3581V13.4716C18.6439 12.9683 18.5018 12.7586 18.0756 12.7586H14.9498C14.6372 12.7586 14.4383 12.9963 14.4383 13.206C14.4383 13.6813 15.1487 13.7931 15.2339 15.1073V17.9872C15.2339 18.6163 15.1203 18.7282 14.8645 18.7282C14.1967 18.7282 12.5486 16.2956 11.5824 13.4996C11.3835 12.9823 11.1988 12.7586 10.6873 12.7586H8.69811C8.12978 12.7586 8.01611 13.0242 8.01611 13.3178C8.01611 13.8351 8.6839 16.4074 11.1561 19.8047C12.8043 22.1254 15.1203 23.3836 17.2231 23.3836C18.4876 23.3836 18.6439 23.104 18.6439 22.6287V20.8672C18.6439 20.3079 18.7576 20.1961 19.1696 20.1961C19.468 20.1961 19.9653 20.3359 21.1446 21.4543C22.4944 22.7824 22.7217 23.3836 23.4748 23.3836H25.4639C26.0322 23.3836 26.3164 23.104 26.1459 22.5588C25.9612 22.0135 25.3218 21.2167 24.4693 20.266C24.0005 19.7208 23.3043 19.1476 23.1053 18.854C22.807 18.4765 22.8922 18.3088 23.1053 17.9872C23.1053 17.9732 25.535 14.618 25.7765 13.4716Z" fill="white"/>
<path d="M32.687 16.6458C32.687 25.5691 25.5484 32.7917 16.756 32.7917C7.96371 32.7917 0.825073 25.5691 0.825073 16.6458C0.825073 7.72259 7.96371 0.5 16.756 0.5C25.5484 0.5 32.687 7.72259 32.687 16.6458Z" stroke="white"/>
</svg>