<svg width="34" height="34" viewBox="0 0 34 34" fill="none" xmlns="http://www.w3.org/2000/svg">
<g clip-path="url(#clip0_2172_19271)">
<path d="M9.04113 16.0091C13.9445 13.7121 20.2898 10.9115 21.1657 10.5239C23.4633 9.50932 24.1682 9.70375 23.8167 11.9505C23.5643 13.5654 22.8359 18.9119 22.2554 22.2397C21.9109 24.2131 21.138 24.447 19.9227 23.5933C19.3382 23.1824 16.3884 21.1051 15.7481 20.6174C15.1637 20.1728 14.3576 19.6381 15.3685 18.585C15.7282 18.2098 18.0863 15.8122 19.9235 13.946C20.1642 13.7009 19.8618 13.2983 19.584 13.4948C17.1078 15.2434 13.6745 17.6705 13.2375 17.9867C12.5774 18.4641 11.9434 18.683 10.8054 18.3349C9.94549 18.0719 9.1055 17.7582 8.77856 17.6386C7.51956 17.1782 7.81841 16.582 9.04113 16.0091Z" fill="white"/>
<path d="M32.3619 17.3542C32.3619 26.2774 25.2233 33.5 16.431 33.5C7.63864 33.5 0.5 26.2774 0.5 17.3542C0.5 8.43093 7.63864 1.20834 16.431 1.20834C25.2233 1.20834 32.3619 8.43093 32.3619 17.3542Z" stroke="white"/>
</g>
<defs>
<clipPath id="clip0_2172_19271">
<rect width="33.5611" height="34" fill="white"/>
</clipPath>
</defs>
</svg>