<svg width="104" height="123" viewBox="0 0 104 123" fill="none" xmlns="http://www.w3.org/2000/svg">
<path opacity="0.15" d="M103.701 91.707V123H7.76993V98.205L51.0329 58.191C54.7949 54.657 57.3029 51.636 58.5569 49.128C59.8109 46.62 60.4379 44.169 60.4379 41.775C60.4379 38.811 59.4119 36.531 57.3599 34.935C55.4219 33.225 52.5719 32.37 48.8099 32.37C45.1619 32.37 41.7419 33.339 38.5499 35.277C35.3579 37.215 32.9069 39.951 31.1969 43.485L0.758934 28.266C5.31893 19.716 11.9879 12.99 20.7659 8.08799C29.5439 3.07199 40.1459 0.563996 52.5719 0.563996C62.0339 0.563996 70.4129 2.103 77.7089 5.181C85.0049 8.25899 90.7049 12.648 94.8089 18.348C98.9129 24.048 100.965 30.603 100.965 38.013C100.965 44.625 99.5399 50.838 96.6899 56.652C93.9539 62.352 88.5389 68.85 80.4449 76.146L63.3449 91.707H103.701Z" fill="#333E7B"/>
</svg>