<svg width="103" height="123" viewBox="0 0 103 123" fill="none" xmlns="http://www.w3.org/2000/svg">
<path opacity="0.15" d="M73.643 47.667C82.877 49.947 89.945 54.108 94.847 60.15C99.863 66.078 102.371 73.26 102.371 81.696C102.371 88.878 100.376 95.604 96.386 101.874C92.51 108.03 86.468 113.046 78.26 116.922C70.052 120.798 59.849 122.736 47.651 122.736C39.215 122.736 30.779 121.824 22.343 120C14.021 118.176 6.72496 115.497 0.454957 111.963L14.135 82.209C19.037 85.059 24.281 87.225 29.867 88.707C35.567 90.189 41.039 90.93 46.283 90.93C50.957 90.93 54.719 90.132 57.569 88.536C60.419 86.94 61.844 84.66 61.844 81.696C61.844 76.224 57.113 73.488 47.651 73.488H31.748V48.693L49.361 30.738H6.61096V0.299992H95.873V25.095L73.643 47.667Z" fill="#333E7B"/>
</svg>