<svg width="22" height="22" viewBox="0 0 22 22" fill="none" xmlns="http://www.w3.org/2000/svg">
<path d="M10.536 1.15543C10.704 0.737191 11.296 0.73719 11.464 1.15542L13.9865 7.43709C14.0581 7.6152 14.2252 7.73664 14.4167 7.74963L21.1704 8.20756C21.6201 8.23805 21.803 8.80115 21.4572 9.09012L16.2625 13.4303C16.1152 13.5534 16.0513 13.7499 16.0982 13.936L17.7497 20.5007C17.8596 20.9378 17.3806 21.2858 16.9989 21.0462L11.2659 17.4469C11.1033 17.3449 10.8967 17.3449 10.7341 17.4469L5.00109 21.0462C4.61938 21.2858 4.14039 20.9378 4.25035 20.5007L5.90184 13.936C5.94866 13.7499 5.88481 13.5534 5.73753 13.4303L0.542817 9.09012C0.196952 8.80115 0.379911 8.23805 0.829576 8.20756L7.58331 7.74963C7.77479 7.73664 7.94195 7.6152 8.01347 7.4371L10.536 1.15543Z" fill="#FFA800"/>
</svg>