<svg width="24" height="24" viewBox="0 0 24 24" fill="none" xmlns="http://www.w3.org/2000/svg">
<path d="M21.45 3.37708C20.965 2.96208 20.241 2.88508 19.515 3.17208C19.065 3.34908 12.014 6.31608 5.44101 9.08308L3.27001 9.99708C2.42901 10.3381 2.00301 10.8911 2.00301 11.6381C2.00301 12.1611 2.22501 12.8721 3.28101 13.2901L6.94801 14.7571C7.26501 15.7081 8.00101 17.9161 8.18601 18.5031C8.29601 18.8511 8.57401 19.7281 9.27601 19.9331C9.42001 19.9821 9.57001 20.0071 9.72301 20.0071C10.166 20.0071 10.485 19.8011 10.641 19.6811L12.97 17.7111L15.801 20.3281C15.91 20.4391 16.486 21.0001 17.261 21.0001C18.228 21.0001 18.962 20.1951 19.115 19.4161C19.198 18.9891 21.927 5.28708 21.927 5.28908C22.172 4.19008 21.733 3.62008 21.45 3.37708ZM17.166 18.8661L13.029 15.0401L9.99901 17.6051C9.64001 16.4981 8.69801 13.6831 8.69801 13.6831L8.55201 13.2441L4.53101 11.6361L6.21801 10.9271C10.517 9.11708 18.174 5.89408 19.91 5.17208C19.533 7.06208 17.478 17.3791 17.166 18.8661Z" fill="white"/>
<path d="M16.8 8C16.675 8 16.506 8.119 16.416 8.175C15.128 8.978 8.67 12.653 6.899 13.659C7.398 13.859 7.75 14 7.75 14C7.75 14 8.901 17.445 9.14 18.2C9.379 18.956 9.571 18.974 9.571 18.974C9.624 18.997 9.676 19.006 9.724 19.006C9.763 19.006 9.79 18.992 9.823 18.983L11 14.375C11 14.375 16.363 8.947 16.686 8.631C16.946 8.378 17 8.289 17 8.201C17 8.084 16.939 8 16.8 8Z" fill="white"/>
</svg>