<svg width="24" height="24" viewBox="0 0 24 24" fill="none" xmlns="http://www.w3.org/2000/svg">
<path d="M16.998 15.117L15.53 15.137C15.53 15.137 15.213 15.199 14.799 14.913C14.25 14.536 13.732 13.554 13.328 13.682C12.919 13.812 12.931 14.696 12.931 14.696C12.931 14.696 12.934 14.852 12.841 14.953C12.74 15.062 12.541 15.051 12.541 15.051H11.883C11.883 15.051 10.433 15.171 9.154 13.839C7.76 12.386 6.53 9.51799 6.53 9.51799C6.53 9.51799 6.459 9.33699 6.536 9.24499C6.623 9.14199 6.859 9.13999 6.859 9.13999L8.43 9.13199C8.43 9.13199 8.578 9.15799 8.685 9.23599C8.772 9.29999 8.822 9.42099 8.822 9.42099C8.822 9.42099 9.076 10.065 9.413 10.648C10.07 11.784 10.375 12.033 10.598 11.911C10.923 11.733 10.826 10.305 10.826 10.305C10.826 10.305 10.832 9.78599 10.663 9.55499C10.53 9.37499 10.283 9.32199 10.174 9.30799C10.085 9.29599 10.23 9.08999 10.418 8.99799C10.701 8.85999 11.201 8.85199 11.791 8.85699C12.251 8.86199 12.383 8.88999 12.563 8.93399C13.105 9.06499 12.921 9.57099 12.921 10.785C12.921 11.174 12.851 11.721 13.131 11.901C13.252 11.979 13.547 11.913 14.282 10.66C14.632 10.066 14.893 9.36799 14.893 9.36799C14.893 9.36799 14.95 9.24399 15.039 9.18999C15.13 9.13499 15.253 9.15199 15.253 9.15199L16.907 9.14199C16.907 9.14199 17.404 9.08199 17.485 9.30799C17.57 9.54399 17.3 10.095 16.624 10.996C15.515 12.477 15.391 12.339 16.313 13.195C17.193 14.013 17.375 14.411 17.405 14.461C17.766 15.069 16.998 15.117 16.998 15.117Z" fill="white"/>
<path d="M19 3H5C3.895 3 3 3.895 3 5V19C3 20.105 3.895 21 5 21H19C20.105 21 21 20.105 21 19V5C21 3.895 20.105 3 19 3ZM19 19H5V5H19V19Z" fill="white"/>
</svg>